<?xml version="1.0" encoding="UTF-8"?>
<svg xmlns="http://www.w3.org/2000/svg" xmlns:xlink="http://www.w3.org/1999/xlink" viewBox="0 0 30 30" width="35px" height="35px">
<g id="surface733263">
<path style="fill-rule:nonzero;fill:rgb(80.000001%,80.000001%,80.000001%);fill-opacity:1;stroke-width:10;stroke-linecap:butt;stroke-linejoin:round;stroke:rgb(74.117649%,73.725492%,73.725492%);stroke-opacity:1;stroke-miterlimit:10;" d="M 44.194445 24.618827 L 86.000001 66.424383 L 127.805557 24.618827 C 130.05699 22.367394 133.682982 22.367394 135.910715 24.618827 L 147.381174 36.089286 C 149.632607 38.31702 149.632607 41.943012 147.381174 44.194445 L 105.575618 86.000001 L 147.381174 127.805557 C 149.632607 130.05699 149.632607 133.682982 147.381174 135.910715 L 135.910715 147.381174 C 133.682982 149.632607 130.05699 149.632607 127.805557 147.381174 L 86.000001 105.575618 L 44.194445 147.381174 C 41.943012 149.632607 38.31702 149.632607 36.089286 147.381174 L 24.618827 135.910715 C 22.367394 133.682982 22.367394 130.05699 24.618827 127.805557 L 66.424383 86.000001 L 24.618827 44.194445 C 22.367394 41.943012 22.367394 38.31702 24.618827 36.089286 L 36.089286 24.618827 C 37.203153 23.481261 38.672509 22.936177 40.141865 22.936177 C 41.611222 22.936177 43.056879 23.481261 44.194445 24.618827 Z M 44.194445 24.618827 " transform="matrix(0.164826,0,0,0.164826,0.825,0.825)"/>
<path style=" stroke:none;fill-rule:nonzero;fill:rgb(80.000001%,80.000001%,80.000001%);fill-opacity:1;" d="M 7.441406 4.605469 C 7.199219 4.605469 6.957031 4.695312 6.773438 4.882812 L 4.882812 6.773438 C 4.511719 7.140625 4.511719 7.738281 4.882812 8.109375 L 11.773438 15 L 4.882812 21.890625 C 4.511719 22.261719 4.511719 22.859375 4.882812 23.226562 L 6.773438 25.117188 C 7.140625 25.488281 7.738281 25.488281 8.109375 25.117188 L 15 18.226562 L 21.890625 25.117188 C 22.261719 25.488281 22.859375 25.488281 23.226562 25.117188 L 25.117188 23.226562 C 25.488281 22.859375 25.488281 22.261719 25.117188 21.890625 L 18.226562 15 L 25.117188 8.109375 C 25.488281 7.738281 25.488281 7.140625 25.117188 6.773438 L 23.226562 4.882812 C 22.859375 4.511719 22.261719 4.511719 21.890625 4.882812 L 15 11.773438 L 8.109375 4.882812 C 7.921875 4.695312 7.683594 4.605469 7.441406 4.605469 Z M 7.441406 4.605469 "/>
</g>
</svg>
